<svg id="Layer_1" data-name="Layer 1" xmlns="http://www.w3.org/2000/svg" viewBox="0 0 200 200"><defs><style>.cls-1{fill:#ea3c53;}.cls-2{fill:#e8ecf2;}.cls-3{fill:#fff;}</style></defs><title>empty-cart</title><polyline class="cls-1" points="100 13.87 174.59 56.93 174.59 143.07 100 186.13 25.41 143.07 25.41 56.93 100 13.87"/><path class="cls-2" d="M100,13.87l74.59,43.06v86.14L100,186.13,25.41,143.07V56.93L100,13.87m0-13L14.12,50.42v99.16L100,199.16l85.88-49.58V50.42L100,.84Z"/><path class="cls-3" d="M121.69,119.59c0,17.16-10.41,24.73-21.76,24.73s-21.62-7.57-21.62-24.73V73.64c0-17.16,10.27-24.73,21.62-24.73s21.76,7.57,21.76,24.73ZM99.93,59.45c-6.08,0-10.13,4.19-10.13,14.19v46c0,10,4,14.19,10.13,14.19s10.14-4.19,10.14-14.19V73.64C110.07,63.64,106,59.45,99.93,59.45Z"/></svg>